<svg width="747" height="256" viewBox="0 0 747 256" fill="none"
    xmlns="http://www.w3.org/2000/svg">
    <path d="M215.927 117.456L215.944 117.439L163.581 64.5976C159.956 60.9393 155.124 58.9179 149.974 58.9063C149.958 58.9063 149.944 58.9063 149.928 58.9063C144.796 58.9063 139.97 60.9048 136.339 64.5361L129.942 70.9337C129.242 71.6333 128.425 71.7377 128 71.7377C127.576 71.7377 126.758 71.6333 126.059 70.9337L119.661 64.5357C116.03 60.9048 111.206 58.9067 106.073 58.9067C106.058 58.9067 106.042 58.9067 106.027 58.9067C100.877 58.9183 96.0444 60.9397 92.4202 64.598L40.0571 117.439L40.0742 117.456C31.6369 125.906 26.4127 137.563 26.4127 150.418C26.4127 176.155 47.3512 197.094 73.0881 197.094C91.321 197.094 107.135 186.579 114.813 171.3C118.632 173.721 123.154 175.129 128 175.129C132.847 175.129 137.368 173.721 141.188 171.3C148.865 186.579 164.68 197.094 182.913 197.094C208.649 197.093 229.587 176.155 229.587 150.418C229.587 137.563 224.363 125.906 215.927 117.456ZM73.0881 180.62C56.4349 180.62 42.8865 167.071 42.8865 150.418C42.8865 133.765 56.4349 120.217 73.0881 120.217C89.7413 120.217 103.29 133.765 103.29 150.418C103.29 167.071 89.7413 180.62 73.0881 180.62ZM128 161.4C121.935 161.4 117.017 156.484 117.017 150.418C117.017 144.352 121.934 139.435 128 139.435C134.066 139.435 138.983 144.352 138.983 150.418C138.983 156.484 134.065 161.4 128 161.4ZM182.912 180.62C166.259 180.62 152.71 167.071 152.71 150.418C152.71 133.765 166.259 120.217 182.912 120.217C199.565 120.217 213.113 133.765 213.113 150.418C213.113 167.071 199.565 180.62 182.912 180.62Z" fill="#FFFEFE" stroke="#FFFEFE" stroke-width="0.396825"/>
    <path d="M310.4 95.128H272.512V126.36H303.104V135.576H272.512V175H262.4V85.4H310.4V95.128ZM342.596 176.536C336.452 176.536 331.033 175.213 326.34 172.568C321.732 169.923 318.105 166.211 315.46 161.432C312.9 156.568 311.62 150.893 311.62 144.408C311.62 136.899 312.985 130.627 315.716 125.592C318.447 120.557 322.116 116.76 326.724 114.2C331.417 111.64 336.708 110.36 342.596 110.36C348.655 110.36 353.988 111.64 358.596 114.2C363.289 116.76 366.959 120.557 369.604 125.592C372.249 130.627 373.572 136.899 373.572 144.408C373.572 150.893 372.249 156.568 369.604 161.432C366.959 166.211 363.289 169.923 358.596 172.568C353.988 175.213 348.655 176.536 342.596 176.536ZM342.596 166.808C347.119 166.808 350.959 165.827 354.116 163.864C357.273 161.816 359.663 159.085 361.284 155.672C362.905 152.259 363.716 148.504 363.716 144.408C363.716 137.411 361.881 131.651 358.212 127.128C354.628 122.52 349.423 120.216 342.596 120.216C335.684 120.216 330.436 122.52 326.852 127.128C323.268 131.736 321.476 137.496 321.476 144.408C321.476 148.589 322.244 152.387 323.78 155.8C325.401 159.128 327.791 161.816 330.948 163.864C334.105 165.827 337.988 166.808 342.596 166.808ZM385.15 175V111.768H395.262V117.656C398.078 114.499 401.534 112.579 405.63 111.896C409.811 111.213 415.059 111.768 421.374 113.56L416.638 122.52C412.798 121.155 409.214 120.941 405.886 121.88C402.643 122.733 400.041 124.269 398.078 126.488C396.115 128.707 395.177 131.096 395.262 133.656V175H385.15ZM484.411 146.072H434.619C434.79 151.619 436.283 156.013 439.099 159.256C441.915 162.499 445.499 164.632 449.851 165.656C454.203 166.68 458.854 166.595 463.803 165.4C468.752 164.205 473.446 161.944 477.883 158.616L483.259 166.552C479.078 169.795 474.726 172.184 470.203 173.72C465.68 175.256 461.158 176.067 456.635 176.152C445.968 176.408 437.819 173.464 432.187 167.32C426.555 161.091 423.739 152.429 423.739 141.336C423.739 131.864 426.384 124.312 431.675 118.68C437.051 113.048 444.816 110.275 454.971 110.36C461.627 110.36 467.302 111.725 471.995 114.456C476.688 117.187 480.144 121.24 482.363 126.616C483.472 129.261 484.155 132.205 484.411 135.448C484.752 138.691 484.752 142.232 484.411 146.072ZM455.483 119.832C449.68 119.832 444.731 121.368 440.635 124.44C436.624 127.427 434.619 131.907 434.619 137.88H475.323C475.323 132.248 473.531 127.853 469.947 124.696C466.448 121.453 461.627 119.832 455.483 119.832ZM495.87 167.576L501.886 161.048C504.531 163.011 507.177 164.547 509.822 165.656C512.467 166.68 515.155 167.149 517.886 167.064C519.507 167.064 521.043 166.851 522.494 166.424C523.945 165.997 525.31 165.272 526.59 164.248C528.211 163.053 529.278 161.517 529.79 159.64C530.387 157.763 530.387 155.971 529.79 154.264C529.107 152.387 527.87 150.893 526.078 149.784C524.286 148.675 522.153 147.736 519.678 146.968C517.289 146.115 514.771 145.261 512.126 144.408C509.566 143.469 507.177 142.317 504.958 140.952C501.118 138.392 498.643 135.491 497.534 132.248C496.425 128.92 496.425 125.677 497.534 122.52C498.729 119.277 500.819 116.547 503.806 114.328C506.878 112.109 510.675 110.829 515.198 110.488C519.55 110.232 523.774 110.744 527.87 112.024C531.966 113.304 535.166 115.096 537.47 117.4L531.07 123.544C528.937 122.093 526.633 121.027 524.158 120.344C521.683 119.661 519.294 119.32 516.99 119.32C514.259 119.405 511.913 120.045 509.95 121.24C508.073 122.435 507.006 124.355 506.75 127C506.579 129.475 507.39 131.437 509.182 132.888C510.974 134.253 513.449 135.491 516.606 136.6C519.763 137.624 523.177 138.819 526.846 140.184C531.113 141.891 534.398 144.365 536.702 147.608C539.091 150.765 539.817 154.819 538.878 159.768C538.281 164.376 536.403 168.003 533.246 170.648C530.174 173.293 526.419 174.957 521.982 175.64C517.545 176.323 512.979 176.024 508.286 174.744C503.678 173.379 499.539 170.989 495.87 167.576ZM557.684 102.552C555.807 102.552 554.185 101.912 552.82 100.632C551.54 99.2667 550.9 97.6453 550.9 95.768C550.9 93.8907 551.54 92.312 552.82 91.032C554.185 89.6667 555.807 88.984 557.684 88.984C559.561 88.984 561.14 89.6667 562.42 91.032C563.785 92.312 564.468 93.8907 564.468 95.768C564.468 97.6453 563.785 99.2667 562.42 100.632C561.14 101.912 559.561 102.552 557.684 102.552ZM562.548 175H552.948V111H562.548V175ZM603.447 201.112C599.607 201.112 595.767 200.344 591.927 198.808C588.172 197.357 585.015 195.437 582.455 193.048L588.855 185.88C591.842 188.099 595.212 189.635 598.967 190.488C602.807 191.427 606.348 191.427 609.591 190.488C612.919 189.635 615.351 187.715 616.887 184.728C617.826 182.765 618.466 180.76 618.807 178.712C619.148 176.664 619.319 174.104 619.319 171.032C613.943 174.104 608.567 175.555 603.191 175.384C597.9 175.213 593.036 173.805 588.599 171.16C584.162 168.429 580.578 164.76 577.847 160.152C575.116 155.459 573.666 150.125 573.495 144.152C573.324 137.069 574.476 131.053 576.951 126.104C579.426 121.155 582.839 117.357 587.191 114.712C591.543 112.067 596.492 110.701 602.039 110.616C607.671 110.445 613.474 111.683 619.447 114.328V111H629.687V173.592C629.687 182.04 627.511 188.739 623.159 193.688C618.807 198.637 612.236 201.112 603.447 201.112ZM583.607 144.152C583.692 148.76 584.802 152.643 586.935 155.8C589.068 158.872 591.884 161.176 595.383 162.712C598.882 164.248 602.722 164.931 606.903 164.76C611.084 164.504 615.266 163.309 619.447 161.176V124.44C612.45 121.283 606.22 119.96 600.759 120.472C595.383 120.899 591.159 123.117 588.087 127.128C585.015 131.053 583.522 136.728 583.607 144.152ZM697.821 175H687.709V136.856C687.709 131.053 686.088 126.829 682.845 124.184C679.602 121.453 675.336 120.088 670.045 120.088C667.058 120.088 664.242 120.728 661.597 122.008C659.037 123.203 656.946 124.781 655.325 126.744C653.704 128.707 652.893 130.669 652.893 132.632V175H642.781V85.4H652.893V117.272C655.197 114.712 658.098 112.92 661.597 111.896C665.096 110.872 668.381 110.403 671.453 110.488C679.73 110.829 686.173 113.261 690.781 117.784C695.474 122.307 697.821 128.664 697.821 136.856V175ZM719.256 147.352V120.472H708.12V111H719.256V85.4H729.368V111H740.632V120.472H729.368V147.352C729.368 152.813 729.539 156.824 729.88 159.384C730.307 161.859 731.117 163.437 732.312 164.12C733.507 164.803 735.256 165.187 737.56 165.272H740.76V175.384H737.944C734.019 175.384 730.819 175.043 728.344 174.36C725.869 173.592 723.949 172.227 722.584 170.264C721.304 168.301 720.408 165.485 719.896 161.816C719.469 158.147 719.256 153.325 719.256 147.352Z" fill="white"/>
</svg>
